<svg width="97" height="97" viewBox="0 0 97 97" fill="none" xmlns="http://www.w3.org/2000/svg">
<circle cx="48.5" cy="48.5" r="48.5" fill="#060312"/>
<path d="M26.08 36H38.4V37.52C37.9733 37.7867 37.4933 38.0267 36.96 38.24C36.4267 38.4533 35.8933 38.6 35.36 38.68V59.16C35.36 61.3467 35.0267 63.1333 34.36 64.52C33.72 65.9333 32.9467 67.04 32.04 67.84C31.16 68.6667 30.2533 69.2667 29.32 69.64C28.3867 70.0133 27.6267 70.2667 27.04 70.4L26.28 69.36C26.68 69.04 27.0667 68.6267 27.44 68.12C27.8133 67.64 28.1333 67.0133 28.4 66.24C28.6933 65.4667 28.92 64.5333 29.08 63.44C29.2667 62.32 29.36 60.9733 29.36 59.4V38.68C28.7733 38.5467 28.1867 38.4 27.6 38.24C27.04 38.0533 26.5333 37.8133 26.08 37.52V36ZM66.1694 38.68C65.5294 38.5467 64.916 38.3733 64.3294 38.16C63.7694 37.9467 63.2627 37.7333 62.8094 37.52V36H72.9694V37.52C72.6494 37.7333 72.2227 37.9467 71.6894 38.16C71.1827 38.3733 70.6494 38.5467 70.0894 38.68L60.8894 64L56.9294 64.48L46.6094 38.68C46.076 38.5467 45.5427 38.3867 45.0094 38.2C44.476 37.9867 44.0094 37.76 43.6094 37.52V36H56.9294V37.52C56.476 37.7333 55.9694 37.9467 55.4094 38.16C54.8494 38.3733 54.2627 38.5467 53.6494 38.68L59.2494 54.44L60.1694 58.2H60.2494L61.1294 54.36L66.1694 38.68Z" fill="#6042E0"/>
</svg>
