<svg width="107" height="107" viewBox="0 0 107 107" fill="none" xmlns="http://www.w3.org/2000/svg">
<path d="M78.5781 47.6484C78.5781 47.3698 78.6304 47.1086 78.7349 46.8647C78.8394 46.6209 79.0658 46.499 79.4141 46.499C79.5882 46.499 79.832 46.5513 80.1455 46.6558C80.459 46.7603 80.7202 46.8647 80.9292 46.9692C82.2876 47.4917 83.6112 47.8923 84.8999 48.1709C86.1886 48.4495 87.5819 48.6063 89.0796 48.6411C89.811 48.6411 90.5947 48.5889 91.4307 48.4844C92.2666 48.3799 93.0329 48.1535 93.7295 47.8052C94.4261 47.4569 95.0008 46.9867 95.4536 46.3945C95.9064 45.8024 96.1328 45.0361 96.1328 44.0957C96.1328 43.1553 95.8542 42.389 95.2969 41.7969C94.7396 41.2048 93.9907 40.7171 93.0503 40.334C92.1099 39.9508 91.0998 39.6025 90.02 39.2891C88.9403 38.9756 87.7909 38.6273 86.5718 38.2441C85.3527 37.861 84.2729 37.3908 83.3325 36.8335C82.3921 36.2762 81.5213 35.5099 80.7202 34.5347C80.1281 33.7336 79.6927 32.9325 79.4141 32.1313C79.1354 31.3302 78.9787 30.4072 78.9438 29.3623C78.9438 27.7949 79.2922 26.4365 79.9888 25.2871C80.6854 24.1377 81.591 23.1624 82.7056 22.3613C83.8202 21.5602 85.0741 20.9855 86.4673 20.6372C87.8605 20.2889 89.2537 20.0973 90.647 20.0625C91.2043 20.0625 91.9357 20.1147 92.8413 20.2192C93.7469 20.3237 94.6525 20.4805 95.5581 20.6895C96.4637 20.8984 97.3345 21.1597 98.1704 21.4731C99.0063 21.7866 99.5811 22.1872 99.8945 22.6748C100.173 23.0928 100.312 23.6326 100.312 24.2944V24.9214C100.312 25.1304 100.295 25.3394 100.26 25.5483C100.26 25.827 100.208 26.0882 100.104 26.332C99.999 26.5758 99.7726 26.6978 99.4243 26.6978C99.1805 26.6978 98.9541 26.6455 98.7451 26.541C98.5361 26.4365 98.3097 26.332 98.0659 26.2275C97.021 25.7399 95.9064 25.3916 94.7222 25.1826C93.5379 24.9736 92.3711 24.8691 91.2217 24.8691C90.5251 24.8691 89.811 24.9214 89.0796 25.0259C88.3481 25.1304 87.6515 25.3219 86.9897 25.6006C86.328 25.8792 85.8229 26.3146 85.4746 26.9067C85.1263 27.4989 84.9173 28.2129 84.8477 29.0488C84.8477 30.1982 85.2656 31.0864 86.1016 31.7134C86.9375 32.3403 87.9998 32.8802 89.2886 33.333C90.5773 33.7858 91.9531 34.2038 93.416 34.5869C94.8789 34.9701 96.2547 35.5273 97.5435 36.2588C98.8322 36.9902 99.8945 37.8958 100.73 38.9756C101.566 40.0553 102.002 41.5705 102.037 43.521C102.037 45.2625 101.671 46.7603 100.939 48.0142C100.208 49.2681 99.2502 50.2956 98.0659 51.0967C96.8817 51.8978 95.5233 52.5073 93.9907 52.9253C92.4582 53.3433 90.943 53.5348 89.4453 53.5C88.888 53.5 88.0695 53.4478 86.9897 53.3433C85.91 53.2388 84.8128 53.0472 83.6982 52.7686C82.5837 52.4899 81.5387 52.1764 80.5635 51.8281C79.5882 51.4798 78.9961 51.0096 78.7871 50.4175C78.6826 50.2085 78.613 49.9821 78.5781 49.7383C78.5433 49.4945 78.5259 49.2332 78.5259 48.9546V48.2754C78.5259 48.0664 78.5433 47.8574 78.5781 47.6484ZM33.4897 21.8911C33.4897 21.299 33.7684 21.0029 34.3257 21.0029H37.8262C38.5228 21.0029 38.993 21.1248 39.2368 21.3687C39.4806 21.6125 39.707 22.0653 39.916 22.7271L45.9243 46.29L51.4624 22.7271C51.6366 21.9608 51.95 21.4731 52.4028 21.2642C52.8556 21.0552 53.3781 20.9333 53.9702 20.8984C54.3534 20.8984 54.7539 20.9159 55.1719 20.9507C55.5898 20.9855 56.0078 21.0029 56.4258 21.0029C57.0876 21.0029 57.5578 21.1248 57.8364 21.3687C58.1151 21.6125 58.3415 22.0653 58.5156 22.7271L64.106 46.5513L70.271 22.7271C70.4452 22.1349 70.6715 21.6995 70.9502 21.4209C71.2288 21.1423 71.6991 21.0029 72.3608 21.0029H75.6523C76.2445 21.0029 76.5405 21.299 76.5405 21.8911C76.5405 22.1698 76.5057 22.4136 76.436 22.6226C76.3664 22.8315 76.2967 23.0754 76.2271 23.354L67.6587 50.8354C67.4149 51.6366 67.0666 52.1416 66.6138 52.3506C66.161 52.5596 65.6385 52.6641 65.0464 52.6641C64.6632 52.6641 64.2627 52.6466 63.8447 52.6118C63.4268 52.577 62.974 52.5596 62.4863 52.5596C61.7897 52.5596 61.3195 52.4377 61.0757 52.1938C60.8319 51.95 60.6055 51.4798 60.3965 50.7832L54.9106 27.8472L49.4248 50.7832C49.2507 51.5843 48.9372 52.1068 48.4844 52.3506C48.0316 52.5944 47.4917 52.7163 46.8647 52.7163C46.4816 52.7163 46.0811 52.6989 45.6631 52.6641C45.2451 52.6292 44.7749 52.5944 44.2524 52.5596C43.5558 52.5596 43.0856 52.4202 42.8418 52.1416C42.598 51.863 42.3716 51.4102 42.1626 50.7832L33.8032 23.3018C33.7336 23.0928 33.6639 22.8664 33.5942 22.6226C33.5246 22.3787 33.4897 22.1349 33.4897 21.8911ZM24.4512 34.9526V32.3403C24.4512 30.9819 24.3118 29.8325 24.0332 28.8921C23.7546 27.9517 23.3192 27.2028 22.7271 26.6455C22.1349 26.0882 21.3687 25.6702 20.4282 25.3916C19.4878 25.113 18.3384 24.991 16.98 25.0259C15.5171 25.0259 14.2109 25.1652 13.0615 25.4438C11.9121 25.7225 10.6582 26.1405 9.2998 26.6978C9.05599 26.7674 8.75993 26.8719 8.41162 27.0112C8.06331 27.1506 7.74984 27.2376 7.47119 27.2725C7.12288 27.2725 6.9139 27.0983 6.84424 26.75C6.77458 26.4017 6.72233 26.0186 6.6875 25.6006V24.9214C6.6875 24.7124 6.70492 24.5382 6.73975 24.3989V23.772C6.73975 23.5282 6.80941 23.3192 6.94873 23.145C7.26221 22.6922 7.90658 22.2743 8.88184 21.8911C9.8571 21.508 10.9194 21.1945 12.0688 20.9507C13.2183 20.7069 14.3503 20.4979 15.4648 20.3237C16.5794 20.1496 17.4154 20.0799 17.9727 20.1147C21.9782 20.1147 25.0259 21.0203 27.1157 22.8315C29.2056 24.6427 30.2505 27.6208 30.2505 31.7656V43.312H30.355C30.355 43.7996 30.3724 44.3221 30.4072 44.8794C30.4421 45.4367 30.5465 45.9591 30.7207 46.4468C30.7904 46.6209 30.8949 46.8647 31.0342 47.1782C31.1735 47.4917 31.3302 47.84 31.5044 48.2231C31.6785 48.6063 31.8179 48.9372 31.9224 49.2158C32.0269 49.4945 32.0965 49.7035 32.1313 49.8428C32.1313 50.0518 31.9746 50.313 31.6611 50.6265C31.3477 50.9399 30.9645 51.2708 30.5117 51.6191C30.0589 51.9674 29.6235 52.2287 29.2056 52.4028C28.7876 52.577 28.4741 52.6815 28.2651 52.7163C27.9168 52.7163 27.5685 52.5422 27.2202 52.1938C26.8719 51.8455 26.541 51.445 26.2275 50.9922C25.9141 50.5394 25.6354 50.0692 25.3916 49.5815C25.1478 49.0939 24.9562 48.7108 24.8169 48.4321C22.0653 51.7062 18.5822 53.3433 14.3677 53.3433C12.9396 53.3433 11.6335 53.1343 10.4492 52.7163C9.26497 52.2983 8.22005 51.6888 7.31445 50.8877C6.40885 50.0866 5.74707 49.1113 5.3291 47.9619C4.91113 46.8125 4.66732 45.4889 4.59766 43.9912C4.59766 42.2845 4.92855 40.8042 5.59033 39.5503C6.25212 38.2964 7.12288 37.234 8.20264 36.3633C9.28239 35.4925 10.5537 34.8656 12.0166 34.4824C13.4795 34.0993 14.9946 33.8903 16.562 33.8555C17.8856 33.8555 19.1917 33.96 20.4805 34.1689C21.7692 34.3779 23.0928 34.6392 24.4512 34.9526ZM24.2944 40.4385V38.9233C23.2147 38.6447 22.1349 38.4357 21.0552 38.2964C19.9754 38.1571 18.8608 38.0874 17.7114 38.0874C16.771 38.0874 15.8828 38.1745 15.0469 38.3486C14.2109 38.5228 13.4621 38.8188 12.8003 39.2368C12.1385 39.6548 11.616 40.2121 11.2329 40.9087C10.8498 41.6053 10.6582 42.5109 10.6582 43.6255C10.6582 45.2625 11.0762 46.5164 11.9121 47.3872C12.748 48.258 14.002 48.6934 15.6738 48.6934C16.5098 48.6934 17.3631 48.5889 18.2339 48.3799C19.1047 48.1709 19.9232 47.8574 20.6895 47.4395C21.4557 47.0215 22.1349 46.499 22.7271 45.8721C23.3192 45.2451 23.7371 44.4614 23.981 43.521C24.1203 43.0334 24.2074 42.5283 24.2422 42.0059C24.277 41.4834 24.2944 40.9609 24.2944 40.4385ZM95.9238 67.9199C96.3418 67.9199 96.7249 68.0418 97.0732 68.2856C97.4215 68.5295 97.5957 68.8952 97.5957 69.3828C97.5957 69.6615 97.5086 69.9227 97.3345 70.1665C97.1603 70.4103 96.9688 70.6193 96.7598 70.7935C94.0081 72.9878 90.856 74.9035 87.3032 76.5405C83.7505 78.1776 80.0236 79.5708 76.1226 80.7202C72.2215 81.8696 68.3379 82.7056 64.4717 83.228C60.6055 83.7505 56.9134 84.0291 53.3955 84.064C48.5889 84.064 43.7996 83.6286 39.0278 82.7578C34.256 81.887 29.5887 80.5983 25.0259 78.8916C20.4631 77.1849 16.1266 75.0776 12.0166 72.5698C7.90658 70.062 4.05778 67.1536 0.470215 63.8447C0.156738 63.5312 0 63.2178 0 62.9043C0 62.6605 0.0870768 62.4689 0.26123 62.3296C0.435384 62.1903 0.644368 62.1032 0.888184 62.0684C1.132 62.0684 1.39323 62.1554 1.67188 62.3296C9.92676 66.8924 18.4429 70.3755 27.2202 72.7788C35.9976 75.1821 45.1406 76.3838 54.6494 76.3838C61.6504 76.3838 68.512 75.6698 75.2344 74.2417C81.9567 72.8136 88.5571 70.776 95.0356 68.1289C95.2098 68.0592 95.3491 68.007 95.4536 67.9722C95.5581 67.9373 95.7148 67.9199 95.9238 67.9199ZM107 63.7925C107 65.116 106.826 66.5267 106.478 68.0244C106.129 69.5221 105.642 71.0199 105.015 72.5176C104.388 74.0153 103.639 75.3911 102.768 76.645C101.897 77.8989 100.957 78.9613 99.9468 79.832C99.8075 79.9365 99.6681 80.0236 99.5288 80.0933C99.3895 80.1629 99.2153 80.2152 99.0063 80.25C98.6232 80.25 98.4316 80.041 98.4316 79.623C98.4316 79.3444 98.6058 78.7349 98.9541 77.7944C99.3024 76.854 99.7204 75.7568 100.208 74.5029C100.696 73.249 101.096 71.9777 101.41 70.689C101.723 69.4002 101.915 68.2334 101.984 67.1885C101.984 66.5267 101.845 66.0216 101.566 65.6733C101.288 65.325 100.905 65.0464 100.417 64.8374C99.9294 64.6284 99.4243 64.5239 98.9019 64.5239C98.3794 64.5239 97.8395 64.4891 97.2822 64.4194H96.4463C94.9834 64.4194 93.5553 64.4891 92.1621 64.6284C90.7689 64.7677 89.3408 64.9245 87.8779 65.0986H87.6689C87.4948 65.0986 87.3381 65.0638 87.1987 64.9941C87.0594 64.9245 86.9723 64.7677 86.9375 64.5239C86.9375 64.3149 87.0072 64.1234 87.1465 63.9492C87.2858 63.7751 87.4425 63.6183 87.6167 63.479C88.383 62.8869 89.2537 62.3818 90.229 61.9639C91.2043 61.5459 92.2318 61.215 93.3115 60.9712C94.3913 60.7274 95.471 60.5358 96.5508 60.3965C97.6305 60.2572 98.6406 60.1875 99.5811 60.1875C99.8945 60.1875 100.4 60.2049 101.096 60.2397C101.793 60.2746 102.507 60.3442 103.238 60.4487C103.97 60.5532 104.666 60.6925 105.328 60.8667C105.99 61.0409 106.408 61.3021 106.582 61.6504C106.756 61.929 106.861 62.2599 106.896 62.6431C106.93 63.0262 106.965 63.4093 107 63.7925Z" fill="#FF9900"/>
</svg>
