<svg width="100" height="100" viewBox="0 0 100 100" fill="none" xmlns="http://www.w3.org/2000/svg">
<path d="M73.4375 44.5312C73.4375 44.2708 73.4863 44.0267 73.584 43.7988C73.6816 43.571 73.8932 43.457 74.2188 43.457C74.3815 43.457 74.6094 43.5059 74.9023 43.6035C75.1953 43.7012 75.4395 43.7988 75.6348 43.8965C76.9043 44.3848 78.1413 44.7591 79.3457 45.0195C80.5501 45.2799 81.8522 45.4264 83.252 45.459C83.9355 45.459 84.668 45.4102 85.4492 45.3125C86.2305 45.2148 86.9466 45.0033 87.5977 44.6777C88.2487 44.3522 88.7858 43.9128 89.209 43.3594C89.6322 42.806 89.8438 42.0898 89.8438 41.2109C89.8438 40.332 89.5833 39.6159 89.0625 39.0625C88.5417 38.5091 87.8418 38.0534 86.9629 37.6953C86.084 37.3372 85.14 37.0117 84.1309 36.7188C83.1217 36.4258 82.0475 36.1003 80.9082 35.7422C79.7689 35.3841 78.7598 34.9447 77.8809 34.4238C77.002 33.903 76.1882 33.1868 75.4395 32.2754C74.8861 31.5267 74.4792 30.778 74.2188 30.0293C73.9583 29.2806 73.8118 28.418 73.7793 27.4414C73.7793 25.9766 74.1048 24.707 74.7559 23.6328C75.4069 22.5586 76.2533 21.6471 77.2949 20.8984C78.3366 20.1497 79.5085 19.6126 80.8105 19.2871C82.1126 18.9616 83.4147 18.7826 84.7168 18.75C85.2376 18.75 85.9212 18.7988 86.7676 18.8965C87.6139 18.9941 88.4603 19.1406 89.3066 19.3359C90.153 19.5312 90.9668 19.7754 91.748 20.0684C92.5293 20.3613 93.0664 20.7357 93.3594 21.1914C93.6198 21.582 93.75 22.0866 93.75 22.7051V23.291C93.75 23.4863 93.7337 23.6816 93.7012 23.877C93.7012 24.1374 93.6523 24.3815 93.5547 24.6094C93.457 24.8372 93.2454 24.9512 92.9199 24.9512C92.6921 24.9512 92.4805 24.9023 92.2852 24.8047C92.0898 24.707 91.8783 24.6094 91.6504 24.5117C90.6738 24.056 89.6322 23.7305 88.5254 23.5352C87.4186 23.3398 86.3281 23.2422 85.2539 23.2422C84.6029 23.2422 83.9355 23.291 83.252 23.3887C82.5684 23.4863 81.9173 23.6654 81.2988 23.9258C80.6803 24.1862 80.2083 24.5931 79.8828 25.1465C79.5573 25.6999 79.362 26.3672 79.2969 27.1484C79.2969 28.2227 79.6875 29.0527 80.4688 29.6387C81.25 30.2246 82.2428 30.7292 83.4473 31.1523C84.6517 31.5755 85.9375 31.9661 87.3047 32.3242C88.6719 32.6823 89.9577 33.2031 91.1621 33.8867C92.3665 34.5703 93.3594 35.4167 94.1406 36.4258C94.9219 37.4349 95.3288 38.8509 95.3613 40.6738C95.3613 42.3014 95.0195 43.7012 94.3359 44.873C93.6523 46.0449 92.7572 47.0052 91.6504 47.7539C90.5436 48.5026 89.2741 49.0723 87.8418 49.4629C86.4095 49.8535 84.9935 50.0326 83.5938 50C83.0729 50 82.3079 49.9512 81.2988 49.8535C80.2897 49.7559 79.2643 49.5768 78.2227 49.3164C77.181 49.056 76.2044 48.763 75.293 48.4375C74.3815 48.112 73.8281 47.6725 73.6328 47.1191C73.5352 46.9238 73.4701 46.7122 73.4375 46.4844C73.4049 46.2565 73.3887 46.0124 73.3887 45.752V45.1172C73.3887 44.9219 73.4049 44.7266 73.4375 44.5312ZM31.2988 20.459C31.2988 19.9056 31.5592 19.6289 32.0801 19.6289H35.3516C36.0026 19.6289 36.4421 19.7428 36.6699 19.9707C36.8978 20.1986 37.1094 20.6217 37.3047 21.2402L42.9199 43.2617L48.0957 21.2402C48.2585 20.5241 48.5514 20.0684 48.9746 19.873C49.3978 19.6777 49.8861 19.5638 50.4395 19.5312C50.7975 19.5312 51.1719 19.5475 51.5625 19.5801C51.9531 19.6126 52.3438 19.6289 52.7344 19.6289C53.3529 19.6289 53.7923 19.7428 54.0527 19.9707C54.3132 20.1986 54.5247 20.6217 54.6875 21.2402L59.9121 43.5059L65.6738 21.2402C65.8366 20.6868 66.0482 20.2799 66.3086 20.0195C66.569 19.7591 67.0085 19.6289 67.627 19.6289H70.7031C71.2565 19.6289 71.5332 19.9056 71.5332 20.459C71.5332 20.7194 71.5007 20.9473 71.4355 21.1426C71.3704 21.3379 71.3053 21.5658 71.2402 21.8262L63.2324 47.5098C63.0046 48.2585 62.679 48.7305 62.2559 48.9258C61.8327 49.1211 61.3444 49.2188 60.791 49.2188C60.4329 49.2188 60.0586 49.2025 59.668 49.1699C59.2773 49.1374 58.8542 49.1211 58.3984 49.1211C57.7474 49.1211 57.3079 49.0072 57.0801 48.7793C56.8522 48.5514 56.6406 48.112 56.4453 47.4609L51.3184 26.0254L46.1914 47.4609C46.0286 48.2096 45.7357 48.6979 45.3125 48.9258C44.8893 49.1536 44.3848 49.2676 43.7988 49.2676C43.4408 49.2676 43.0664 49.2513 42.6758 49.2188C42.2852 49.1862 41.8457 49.1536 41.3574 49.1211C40.7064 49.1211 40.2669 48.9909 40.0391 48.7305C39.8112 48.4701 39.5996 48.0469 39.4043 47.4609L31.5918 21.7773C31.5267 21.582 31.4616 21.3704 31.3965 21.1426C31.3314 20.9147 31.2988 20.6868 31.2988 20.459ZM22.8516 32.666V30.2246C22.8516 28.9551 22.7214 27.8809 22.4609 27.002C22.2005 26.123 21.7936 25.4232 21.2402 24.9023C20.6868 24.3815 19.9707 23.9909 19.0918 23.7305C18.2129 23.4701 17.1387 23.3561 15.8691 23.3887C14.502 23.3887 13.2812 23.5189 12.207 23.7793C11.1328 24.0397 9.96094 24.4303 8.69141 24.9512C8.46354 25.0163 8.18685 25.1139 7.86133 25.2441C7.53581 25.3743 7.24284 25.4557 6.98242 25.4883C6.6569 25.4883 6.46159 25.3255 6.39648 25C6.33138 24.6745 6.28255 24.3164 6.25 23.9258V23.291C6.25 23.0957 6.26628 22.9329 6.29883 22.8027V22.2168C6.29883 21.9889 6.36393 21.7936 6.49414 21.6309C6.78711 21.2077 7.38932 20.8171 8.30078 20.459C9.21224 20.1009 10.2051 19.8079 11.2793 19.5801C12.3535 19.3522 13.4115 19.1569 14.4531 18.9941C15.4948 18.8314 16.276 18.7663 16.7969 18.7988C20.5404 18.7988 23.3887 19.6452 25.3418 21.3379C27.2949 23.0306 28.2715 25.8138 28.2715 29.6875V40.4785H28.3691C28.3691 40.9342 28.3854 41.4225 28.418 41.9434C28.4505 42.4642 28.5482 42.9525 28.7109 43.4082C28.776 43.571 28.8737 43.7988 29.0039 44.0918C29.1341 44.3848 29.2806 44.7103 29.4434 45.0684C29.6061 45.4264 29.7363 45.7357 29.834 45.9961C29.9316 46.2565 29.9967 46.4518 30.0293 46.582C30.0293 46.7773 29.8828 47.0215 29.5898 47.3145C29.2969 47.6074 28.9388 47.9167 28.5156 48.2422C28.0924 48.5677 27.6855 48.8118 27.2949 48.9746C26.9043 49.1374 26.6113 49.235 26.416 49.2676C26.0905 49.2676 25.765 49.1048 25.4395 48.7793C25.1139 48.4538 24.8047 48.0794 24.5117 47.6562C24.2188 47.2331 23.9583 46.7936 23.7305 46.3379C23.5026 45.8822 23.3236 45.5241 23.1934 45.2637C20.6217 48.3236 17.3665 49.8535 13.4277 49.8535C12.0931 49.8535 10.8724 49.6582 9.76562 49.2676C8.65885 48.877 7.68229 48.3073 6.83594 47.5586C5.98958 46.8099 5.37109 45.8984 4.98047 44.8242C4.58984 43.75 4.36198 42.513 4.29688 41.1133C4.29688 39.5182 4.60612 38.1348 5.22461 36.9629C5.8431 35.791 6.6569 34.7982 7.66602 33.9844C8.67513 33.1706 9.86328 32.5846 11.2305 32.2266C12.5977 31.8685 14.0137 31.6732 15.4785 31.6406C16.7155 31.6406 17.9362 31.7383 19.1406 31.9336C20.3451 32.1289 21.582 32.373 22.8516 32.666ZM22.7051 37.793V36.377C21.696 36.1165 20.6868 35.9212 19.6777 35.791C18.6686 35.6608 17.627 35.5957 16.5527 35.5957C15.6738 35.5957 14.8438 35.6771 14.0625 35.8398C13.2812 36.0026 12.5814 36.2793 11.9629 36.6699C11.3444 37.0605 10.8561 37.5814 10.498 38.2324C10.14 38.8835 9.96094 39.7298 9.96094 40.7715C9.96094 42.3014 10.3516 43.4733 11.1328 44.2871C11.9141 45.1009 13.0859 45.5078 14.6484 45.5078C15.4297 45.5078 16.2272 45.4102 17.041 45.2148C17.8548 45.0195 18.6198 44.7266 19.3359 44.3359C20.0521 43.9453 20.6868 43.457 21.2402 42.8711C21.7936 42.2852 22.1842 41.5527 22.4121 40.6738C22.5423 40.2181 22.6237 39.7461 22.6562 39.2578C22.6888 38.7695 22.7051 38.2812 22.7051 37.793ZM89.6484 63.4766C90.0391 63.4766 90.3971 63.5905 90.7227 63.8184C91.0482 64.0462 91.2109 64.388 91.2109 64.8438C91.2109 65.1042 91.1296 65.3483 90.9668 65.5762C90.804 65.804 90.625 65.9993 90.4297 66.1621C87.8581 68.2129 84.9121 70.0033 81.5918 71.5332C78.2715 73.0632 74.7884 74.3652 71.1426 75.4395C67.4967 76.5137 63.8672 77.2949 60.2539 77.7832C56.6406 78.2715 53.1901 78.5319 49.9023 78.5645C45.4102 78.5645 40.9342 78.1576 36.4746 77.3438C32.015 76.5299 27.653 75.3255 23.3887 73.7305C19.1243 72.1354 15.0716 70.166 11.2305 67.8223C7.38932 65.4785 3.79232 62.7604 0.439453 59.668C0.146484 59.375 0 59.082 0 58.7891C0 58.5612 0.0813802 58.3822 0.244141 58.252C0.406901 58.1217 0.602214 58.0404 0.830078 58.0078C1.05794 58.0078 1.30208 58.0892 1.5625 58.252C9.27734 62.5163 17.2363 65.7715 25.4395 68.0176C33.6426 70.2637 42.1875 71.3867 51.0742 71.3867C57.6172 71.3867 64.0299 70.7194 70.3125 69.3848C76.5951 68.0501 82.7637 66.1458 88.8184 63.6719C88.9811 63.6068 89.1113 63.5579 89.209 63.5254C89.3066 63.4928 89.4531 63.4766 89.6484 63.4766ZM100 59.6191C100 60.8561 99.8372 62.1745 99.5117 63.5742C99.1862 64.974 98.7305 66.3737 98.1445 67.7734C97.5586 69.1732 96.8587 70.459 96.0449 71.6309C95.2311 72.8027 94.3522 73.7956 93.4082 74.6094C93.278 74.707 93.1478 74.7884 93.0176 74.8535C92.8874 74.9186 92.7246 74.9674 92.5293 75C92.1712 75 91.9922 74.8047 91.9922 74.4141C91.9922 74.1536 92.1549 73.584 92.4805 72.7051C92.806 71.8262 93.1966 70.8008 93.6523 69.6289C94.1081 68.457 94.4824 67.2689 94.7754 66.0645C95.0684 64.86 95.2474 63.7695 95.3125 62.793C95.3125 62.1745 95.1823 61.7025 94.9219 61.377C94.6615 61.0514 94.3034 60.791 93.8477 60.5957C93.3919 60.4004 92.9199 60.3027 92.4316 60.3027C91.9434 60.3027 91.4388 60.2702 90.918 60.2051H90.1367C88.7695 60.2051 87.4349 60.2702 86.1328 60.4004C84.8307 60.5306 83.4961 60.6771 82.1289 60.8398H81.9336C81.7708 60.8398 81.6243 60.8073 81.4941 60.7422C81.3639 60.6771 81.2826 60.5306 81.25 60.3027C81.25 60.1074 81.3151 59.9284 81.4453 59.7656C81.5755 59.6029 81.722 59.4564 81.8848 59.3262C82.6009 58.7728 83.4147 58.3008 84.3262 57.9102C85.2376 57.5195 86.1979 57.2103 87.207 56.9824C88.2161 56.7546 89.2253 56.5755 90.2344 56.4453C91.2435 56.3151 92.1875 56.25 93.0664 56.25C93.3594 56.25 93.8314 56.2663 94.4824 56.2988C95.1335 56.3314 95.8008 56.3965 96.4844 56.4941C97.168 56.5918 97.819 56.722 98.4375 56.8848C99.056 57.0475 99.4466 57.2917 99.6094 57.6172C99.7721 57.8776 99.8698 58.1868 99.9023 58.5449C99.9349 58.903 99.9674 59.2611 100 59.6191Z" fill="#FF9900"/>
</svg>
