<svg width="38" height="95" viewBox="0 0 38 95" fill="none" xmlns="http://www.w3.org/2000/svg">
<path d="M30.871 34.2748L25.6779 37.5375V28.4019L30.871 24.1549V34.2748Z" fill="#11706C"/>
<path d="M25.6777 28.402L14.976 21.9907V14.3668L30.8763 24.155L25.6777 28.402Z" fill="#65E2DD"/>
<path d="M30.871 34.2751L37.5814 38.5221L32.3882 41.7848L25.6779 37.5378L30.871 34.2751Z" fill="#25B5AF"/>
<path d="M14.976 53.873L22.6107 58.7562L29.9519 54.1992L14.976 44.721V53.873Z" fill="#65E2DD"/>
<path d="M22.6107 58.7563V66.924L7.34114 76.386V0L0 4.5787V90.4266L29.9464 72.139V54.1994L22.6107 58.7563Z" fill="#D6FFFD"/>
<path d="M0 90.095L7.63479 95L37.5812 76.7124L29.9464 71.8292L0 90.095Z" fill="#11706C"/>
<path d="M37.5811 76.7122V49.9524L14.9759 35.9118V14.3669L30.8762 24.1551V34.275L37.6627 38.6199L37.5866 18.9456L7.34106 0V76.7122L14.9759 71.655V44.7212L29.9518 54.1994V71.829L37.5811 76.7122Z" fill="#3CCCC6"/>
</svg>
