<svg width="38" height="95" viewBox="0 0 38 95" fill="none" xmlns="http://www.w3.org/2000/svg">
<path d="M30.8688 34.2748L25.676 37.5375V28.4019L30.8688 24.1549V34.2748Z" fill="#11706C"/>
<path d="M25.6758 28.402L14.9749 21.9907V14.3668L30.8741 24.155L25.6758 28.402Z" fill="#65E2DD"/>
<path d="M30.8688 34.2751L37.5787 38.5221L32.3859 41.7848L25.676 37.5378L30.8688 34.2751Z" fill="#25B5AF"/>
<path d="M14.9749 53.873L22.6091 58.7562L29.9497 54.1992L14.9749 44.721V53.873Z" fill="#65E2DD"/>
<path d="M22.6091 58.7563V66.924L7.34061 76.386V0L0 4.5787V90.4266L29.9443 72.139V54.1994L22.6091 58.7563Z" fill="#D6FFFD"/>
<path d="M0 90.095L7.63424 95L37.5785 76.7124L29.9443 71.8292L0 90.095Z" fill="#11706C"/>
<path d="M37.5785 76.7122V49.9524L14.9748 35.9118V14.3669L30.874 24.1551V34.275L37.66 38.6199L37.5839 18.9456L7.34058 0V76.7122L14.9748 71.655V44.7212L29.9497 54.1994V71.829L37.5785 76.7122Z" fill="#3CCCC6"/>
</svg>
